<?xml version="1.0" encoding="UTF-8" standalone="no"?>
<!-- Created with Inkscape (http://www.inkscape.org/) -->

<svg
   xmlns:dc="http://purl.org/dc/elements/1.1/"
   xmlns:cc="http://creativecommons.org/ns#"
   xmlns:rdf="http://www.w3.org/1999/02/22-rdf-syntax-ns#"
   xmlns:svg="http://www.w3.org/2000/svg"
   xmlns="http://www.w3.org/2000/svg"
   xmlns:sodipodi="http://sodipodi.sourceforge.net/DTD/sodipodi-0.dtd"
   xmlns:inkscape="http://www.inkscape.org/namespaces/inkscape"
   version="1.1"
   id="svg2"
   width="388"
   height="526"
   viewBox="0 0 388 526"
   sodipodi:docname="whiteGraph.svg"
   inkscape:version="0.92.3 (2405546, 2018-03-11)">
  <metadata
     id="metadata8">
    <rdf:RDF>
      <cc:Work
         rdf:about="">
        <dc:format>image/svg+xml</dc:format>
        <dc:type
           rdf:resource="http://purl.org/dc/dcmitype/StillImage" />
        <dc:title></dc:title>
      </cc:Work>
    </rdf:RDF>
  </metadata>
  <defs
     id="defs6" />
  <sodipodi:namedview
     pagecolor="#ffffff"
     bordercolor="#666666"
     borderopacity="1"
     objecttolerance="10"
     gridtolerance="10"
     guidetolerance="10"
     inkscape:pageopacity="0"
     inkscape:pageshadow="2"
     inkscape:window-width="1920"
     inkscape:window-height="1018"
     id="namedview4"
     showgrid="false"
     inkscape:zoom="0.92709556"
     inkscape:cx="251.69051"
     inkscape:cy="230.5635"
     inkscape:window-x="0"
     inkscape:window-y="34"
     inkscape:window-maximized="1"
     inkscape:current-layer="svg2" />
  <path
     style="fill:#5397fd;stroke-width:0.53727287"
     d="m 33.054235,515.1384 c -3.953999,-1.28515 -6.950612,-3.16964 -9.441124,-5.93727 -8.613753,-9.57211 -4.699842,-24.01891 7.875,-29.06781 3.030513,-1.21679 9.276714,-1.59802 13.548879,-0.82695 l 2.306744,0.41633 37.645585,-48.86584 C 105.69438,403.98064 123.37135,381.0355 124.27147,379.86767 l 1.63656,-2.12335 -1.89522,-3.5055 c -1.73047,-3.20085 -1.89443,-3.90744 -1.88632,-8.13052 0.007,-3.91512 0.23743,-5.07161 1.49788,-7.53463 2.08142,-4.06705 5.54243,-7.28899 9.95456,-9.26689 3.36265,-1.50743 4.20201,-1.66622 8.80783,-1.66622 4.60581,0 5.44513,0.15879 8.80783,1.66622 9.29389,4.16632 13.92786,13.8783 10.70243,22.43037 l -1.16019,3.07616 37.55652,34.19878 37.55652,34.1988 3.37819,-1.05647 c 2.60621,-0.81505 4.27875,-1.00028 7.31939,-0.8106 2.16767,0.13522 4.23371,0.33281 4.59118,0.43908 0.46731,0.13892 73.12886,-91.53508 79.93061,-100.84505 0.69287,-0.94837 0.57936,-1.391 -1.05179,-4.10155 -1.71793,-2.85477 -1.8285,-3.34838 -1.82952,-8.16538 0,-4.57355 0.16846,-5.44116 1.569,-8.03801 2.29058,-4.24703 7.21557,-8.21746 11.9863,-9.66312 13.31793,-4.03569 27.2168,5.03261 27.25672,17.78361 0.0152,4.93736 -3.41771,11.31411 -7.78852,14.46636 -4.58538,3.307 -12.24479,4.9851 -17.12767,3.7525 l -2.12016,-0.53518 -39.99624,50.98394 -39.99624,50.98393 1.85969,3.44156 c 1.6883,3.1244 1.85969,3.8686 1.85969,8.0758 0,4.19233 -0.17448,4.95699 -1.82985,8.01864 -2.17206,4.01746 -5.71054,7.16914 -10.17673,9.06436 -2.71031,1.15012 -3.96435,1.35592 -8.26253,1.35592 -4.29824,0 -5.55227,-0.2058 -8.26259,-1.35592 -7.21732,-3.06266 -11.71588,-9.06357 -12.15988,-16.22087 -0.19538,-3.14955 -0.006,-4.50605 0.93919,-6.76002 l 1.1836,-2.81982 -37.58175,-34.22174 -37.58168,-34.22176 -3.09667,1.07457 c -2.50481,0.86916 -4.04999,1.04054 -8.0845,0.89668 l -4.98777,-0.17787 -17.98879,23.32755 c -9.89379,12.83014 -27.629941,35.84622 -39.413665,51.14685 l -21.425016,27.8193 1.329657,2.94229 c 1.853106,4.10046 1.896567,11.53691 0.0884,15.11914 -1.703056,3.37404 -6.465339,7.7954 -10.178243,9.44954 -4.122901,1.8368 -10.831869,2.18194 -15.147441,0.77925 z"
     id="path4520"
     inkscape:connector-curvature="0" />
  <path
     style="fill:#5397fd;stroke-width:0.53727287"
     d="m 33.054234,215.1384 c -3.953999,-1.28514 -6.950611,-3.16964 -9.441123,-5.93727 -8.613752,-9.57211 -4.699841,-24.01891 7.874999,-29.06781 3.030513,-1.21679 9.276714,-1.59802 13.548879,-0.82695 l 2.306744,0.41633 37.645588,-48.86584 C 105.69438,103.98064 123.37135,81.035497 124.27147,79.867664 l 1.63656,-2.123345 -1.89522,-3.505502 c -1.73047,-3.200856 -1.89443,-3.907445 -1.88632,-8.13052 0.007,-3.915124 0.23743,-5.071617 1.49788,-7.534638 2.08142,-4.067048 5.54243,-7.288991 9.95456,-9.266882 3.36265,-1.507442 4.20201,-1.666221 8.80783,-1.666221 4.60581,0 5.44513,0.158779 8.80783,1.666221 9.29389,4.166313 13.92786,13.878296 10.70243,22.430367 l -1.16019,3.076161 37.55652,34.198785 37.55652,34.19879 3.37819,-1.05646 c 2.60621,-0.81505 4.27875,-1.00028 7.31939,-0.8106 2.16767,0.13522 4.23371,0.33281 4.59118,0.43908 0.46731,0.13892 73.12886,-91.535086 79.93061,-100.84506 0.69287,-0.948368 0.57936,-1.390996 -1.05179,-4.101544 -1.71793,-2.854777 -1.8285,-3.34839 -1.82952,-8.165391 0,-4.573537 0.16846,-5.441153 1.569,-8.037998 2.29058,-4.247026 7.21558,-8.21747 11.9863,-9.663122 13.31793,-4.03569 27.2168,5.032608 27.25672,17.783614 0.0152,4.937351 -3.41771,11.3141 -7.78852,14.46635 -4.58538,3.307002 -12.24479,4.985106 -17.12767,3.752505 l -2.12016,-0.535188 -39.99624,50.98394 -39.99624,50.983954 1.85969,3.44155 c 1.6883,3.12441 1.85969,3.86859 1.85969,8.07579 0,4.19234 -0.17448,4.957 -1.82985,8.01865 -2.17206,4.01747 -5.71054,7.16914 -10.17673,9.06436 -2.71031,1.15012 -3.96435,1.35591 -8.26253,1.35591 -4.29824,0 -5.55227,-0.20579 -8.26259,-1.35591 -7.21732,-3.06266 -11.71588,-9.06358 -12.15988,-16.22087 -0.19538,-3.14955 -0.006,-4.50605 0.93919,-6.76002 l 1.1836,-2.81982 -37.58175,-34.22174 -37.58168,-34.221766 -3.09667,1.074561 c -2.50481,0.86917 -4.04999,1.040553 -8.0845,0.896681 l -4.98777,-0.177862 -17.98879,23.327546 c -9.89379,12.83015 -27.629939,35.84623 -39.413663,51.14685 l -21.425019,27.81931 1.329657,2.94229 c 1.853106,4.10046 1.896568,11.53691 0.0884,15.11915 -1.703057,3.37403 -6.465339,7.79538 -10.178244,9.44952 -4.122901,1.8368 -10.831869,2.18195 -15.147441,0.77926 z"
     id="path4520-3"
     inkscape:connector-curvature="0" />
</svg>
